<?xml version="1.0"?>
<svg version="1.1" xmlns="http://www.w3.org/2000/svg" width="600" height="200" style=""><path fill="#" d="M15.8681640625,94.7021484375q-0.0341796875-0.4169921875,0.0546875-0.724609375t0.35546875-0.505859375t0.8544921875-0.1982421875l2.201171875,0q0.451171875,0,1.1826171875,0.0478515625t1.572265625,0.1435546875t1.6748046875,0.2939453125t1.5244140625,0.4921875t1.12109375,0.724609375t0.4306640625,1.0185546875q0,0.833984375-0.4853515625,1.5654296875t-1.216796875,1.3193359375t-1.544921875,1.0458984375t-1.4560546875,0.8271484375q2.54296875,0.560546875,3.978515625,2.32421875t1.435546875,4.40234375q0,1.39453125-0.533203125,2.7548828125t-1.4560546875,2.4541015625t-2.1875,1.763671875t-2.7138671875,0.669921875q-0.19140625,0-0.4306640625-0.041015625t-0.4375-0.1298828125t-0.341796875-0.2529296875t-0.1435546875-0.423828125q0-1.203125,1.298828125-1.203125q0.21875,0,0.5126953125,0.0615234375t0.4580078125,0.2529296875q0.751953125-0.314453125,1.3740234375-0.998046875t1.052734375-1.5244140625t0.669921875-1.763671875t0.2392578125-1.6748046875q0-0.90234375-0.2666015625-1.8388671875t-0.7724609375-1.736328125t-1.244140625-1.3466796875t-1.6953125-0.68359375q-0.24609375-0.02734375-0.5400390625-0.041015625l-0.587890625-0.02734375t-0.57421875-0.08203125t-0.4853515625-0.21875q0.109375,2.26953125,0.2802734375,4.525390625t0.4580078125,4.525390625q0.109375,0.109375,0.150390625,0.3212890625t0.068359375,0.451171875t0.02734375,0.4580078125l0,0.369140625q0,0.24609375-0.1640625,0.4033203125t-0.3896484375,0.2529296875t-0.478515625,0.123046875t-0.4443359375,0.02734375q-0.615234375,0-0.943359375-0.1640625t-0.46484375-0.478515625t-0.177734375-0.7177734375t-0.068359375-0.8818359375q-0.369140625-3.814453125-0.533203125-7.546875t-0.1640625-7.546875q0-0.451171875-0.0341796875-0.8681640625z M18.390625,94.12109375q0,1.681640625,0.109375,3.3701171875t0.19140625,3.3701171875q0.615234375-0.369140625,1.61328125-0.8681640625t1.9345703125-1.1005859375t1.6064453125-1.326171875t0.669921875-1.572265625q0-0.669921875-0.79296875-1.0185546875t-1.845703125-0.51953125t-2.0576171875-0.2119140625t-1.4287109375-0.123046875z M30.33533203125,113.80859375q0.0546875-2.857421875,0.2392578125-5.701171875t0.3212890625-5.701171875q0.02734375-1.09375,0.02734375-1.9892578125t0.0888671875-1.5517578125t0.328125-1.0048828125t0.7998046875-0.3486328125q0.478515625,0,0.724609375,0.13671875t0.3759765625,0.3486328125t0.1572265625,0.478515625t0.02734375,0.5400390625q0,0.396484375,0.02734375,0.7861328125t0.02734375,0.7861328125q0,2.884765625-0.1572265625,5.755859375t-0.1572265625,5.783203125q0,0.423828125,0.013671875,0.8544921875t0.013671875,0.8818359375q0,0.1640625-0.150390625,0.2734375t-0.3759765625,0.1845703125t-0.478515625,0.1025390625t-0.4169921875,0.02734375q-0.19140625,0-0.4306640625-0.02734375t-0.46484375-0.1162109375t-0.3828125-0.2119140625t-0.1572265625-0.287109375z M31.10095703125,95.26953125q0-0.13671875,0.041015625-0.3076171875t0.095703125-0.3076171875q0.02734375-0.1640625,0.08203125-0.560546875t0.1982421875-0.7724609375t0.396484375-0.669921875t0.7177734375-0.2939453125l0.259765625,0q0.21875,0.0546875,0.4443359375,0.13671875t0.2255859375,0.396484375q0,0.13671875-0.013671875,0.259765625t-0.041015625,0.2734375q-0.109375,0.806640625-0.2119140625,1.271484375t-0.2392578125,0.7041015625t-0.3486328125,0.3076171875t-0.5400390625,0.095703125q-0.109375,0-0.2939453125-0.013671875t-0.35546875-0.068359375t-0.2939453125-0.1708984375t-0.123046875-0.2802734375z M36.3601171875,105.400390625q0-2.3515625,0.1298828125-4.6484375t0.3212890625-4.6484375q0.0546875-0.615234375,0.068359375-1.189453125t0.1298828125-1.0048828125t0.41015625-0.68359375t0.9091796875-0.2529296875q0.396484375,0,0.8271484375,0.13671875t0.4306640625,0.642578125q0,1.900390625-0.1572265625,3.7392578125t-0.2119140625,3.6572265625q1.490234375-1.681640625,3.185546875-3.1376953125t3.595703125-2.8779296875q0.2734375-0.19140625,0.697265625-0.205078125q0.13671875,0,0.2392578125,0.013671875t0.2119140625,0.041015625q0.13671875,0.0546875,0.2802734375,0.1298828125t0.1435546875,0.2119140625q0,0.109375-0.123046875,0.19140625q-1.421875,1.1484375-2.8095703125,2.337890625t-2.6455078125,2.54296875q0.1640625,0.314453125,0.2802734375,0.587890625t0.2529296875,0.587890625q1.1484375,2.720703125,1.9619140625,5.5712890625t1.7294921875,5.6533203125q0.08203125,0.314453125,0.2392578125,0.6494140625t0.2939453125,0.669921875t0.2392578125,0.62890625t0.1025390625,0.4853515625q0,0.24609375-0.1572265625,0.3896484375t-0.3623046875,0.2255859375t-0.4443359375,0.109375t-0.4443359375,0.02734375q-0.478515625,0-0.8544921875-0.13671875t-0.5947265625-0.615234375q-1.01171875-3.2265625-1.9482421875-6.453125t-1.8935546875-6.5078125q-0.314453125,0.314453125-0.62890625,0.7861328125t-0.57421875,0.8681640625q0,2.05078125,0.095703125,4.07421875t0.328125,4.07421875q0.0546875,0.587890625,0.1845703125,1.17578125t0.1298828125,1.203125q0,0.451171875-0.46484375,0.62890625t-1.025390625,0.177734375q-0.615234375,0-0.9228515625-0.123046875t-0.4375-0.3212890625t-0.1572265625-0.4375t-0.08203125-0.4580078125q-0.314453125-2.16015625-0.396484375-4.2724609375t-0.08203125-4.2451171875z M50.36927734375,112.5234375q0.02734375-0.57421875,0.02734375-1.12109375q0-1.982421875,0.1435546875-3.951171875t0.1982421875-3.951171875q0.08203125-2.26953125,0.150390625-4.498046875t0.2734375-4.484375q0.0546875-0.560546875,0.3212890625-0.7314453125t0.7998046875-0.1708984375q0.24609375,0,0.65625,0.095703125t0.41015625,0.46484375q0.19140625,0.02734375,0.3828125,0.02734375q0.287109375,0,0.587890625-0.0546875q0.4921875-0.08203125,1.0048828125-0.1845703125t1.0185546875-0.1982421875t0.970703125-0.095703125q0.109375,0,0.3076171875,0.013671875t0.396484375,0.08203125t0.3349609375,0.1708984375t0.13671875,0.2666015625t-0.3212890625,0.2939453125t-0.8408203125,0.2255859375t-1.12109375,0.1640625t-1.17578125,0.1162109375t-1.0185546875,0.0751953125t-0.6357421875,0.02734375l-0.02734375,5.140625l0.02734375,2.556640625q0.423828125,0,1.271484375-0.02734375q0.341796875-0.013671875,0.68359375-0.013671875q0.51953125,0,1.06640625,0.02734375q0.90234375,0.041015625,1.626953125,0.1640625t0.916015625,0.4375q0,0.19140625-0.1982421875,0.3076171875t-0.4443359375,0.1708984375t-0.4990234375,0.068359375t-0.3623046875,0.013671875q-1.01171875,0-2.037109375-0.041015625t-2.0234375-0.1640625q0,1.681640625-0.0888671875,3.3359375t-0.0888671875,3.3359375q0,0.724609375,0.013671875,1.4287109375t0.1640625,1.4013671875q0.369140625-0.02734375,0.7998046875-0.068359375t0.875-0.1025390625t0.8544921875-0.1025390625t0.7109375-0.041015625q0.1640625,0,0.4443359375,0.041015625t0.57421875,0.13671875t0.505859375,0.2392578125t0.2119140625,0.3349609375q0,0.21875-0.4033203125,0.3896484375t-1.0322265625,0.2734375t-1.3740234375,0.1435546875t-1.4423828125,0.0546875t-1.2578125,0.013671875l-0.79296875,0q-0.751953125,0-1.1005859375-0.2802734375t-0.4853515625-0.7314453125q-0.109375-0.369140625-0.095703125-0.833984375l0-0.19140625z M67.06728515625,95.26953125q0-0.642578125,0.1572265625-0.9365234375t0.451171875-0.41015625t0.7109375-0.0888671875t0.9775390625,0.02734375q1.421875,0,2.87109375,0.4375t2.611328125,1.2783203125t1.873046875,2.0712890625t0.7109375,2.830078125q0,1.06640625-0.3076171875,2.0166015625t-0.8681640625,1.77734375t-1.3125,1.5107421875t-1.654296875,1.189453125q0.369140625,0.369140625,0.95703125,1.3056640625t1.162109375,1.99609375t1.0185546875,2.0576171875t0.5263671875,1.50390625l-0.1640625,0.24609375q-0.369140625,0.21875-0.888671875,0.232421875q-0.24609375,0-0.642578125-0.0615234375t-0.505859375-0.3623046875q-0.560546875-1.572265625-1.2236328125-3.240234375t-1.6337890625-3.0078125l0-0.02734375q-0.341796875,0.13671875-0.6767578125,0.2666015625t-0.6767578125,0.2392578125q0.109375,1.517578125,0.2255859375,2.9873046875t0.1162109375,2.9736328125q0,0.19140625-0.1845703125,0.3076171875t-0.4169921875,0.1845703125t-0.4716796875,0.095703125t-0.3896484375,0.02734375q-0.13671875,0-0.3896484375-0.02734375t-0.4853515625-0.095703125t-0.4033203125-0.1982421875t-0.1708984375-0.3486328125q0-1.517578125-0.068359375-3.0283203125t-0.150390625-3.0146484375q-0.423828125-0.2734375-0.423828125-0.7109375q0-0.341796875,0.328125-0.46484375q-0.1640625-2.884765625-0.3759765625-5.755859375t-0.2119140625-5.783203125z M69.54189453125,94.845703125q0.19140625,2.966796875,0.4306640625,5.865234375t0.4580078125,5.865234375q0.95703125-0.2734375,1.7841796875-0.9501953125t1.4287109375-1.5244140625t0.9365234375-1.845703125t0.3349609375-1.982421875q0-1.09375-0.4375-2.0986328125t-1.162109375-1.7568359375q-0.73828125-0.751953125-1.6953125-1.17578125q-0.84765625-0.369140625-1.77734375-0.369140625l-0.24609375,0z M80.2287890625,112.5234375q0.02734375-0.57421875,0.02734375-1.12109375q0-1.982421875,0.1435546875-3.951171875t0.1982421875-3.951171875q0.08203125-2.26953125,0.150390625-4.498046875t0.2734375-4.484375q0.0546875-0.560546875,0.3212890625-0.7314453125t0.7998046875-0.1708984375q0.24609375,0,0.65625,0.095703125t0.41015625,0.46484375q0.19140625,0.02734375,0.3828125,0.02734375q0.287109375,0,0.587890625-0.0546875q0.4921875-0.08203125,1.0048828125-0.1845703125t1.0185546875-0.1982421875t0.970703125-0.095703125q0.109375,0,0.3076171875,0.013671875t0.396484375,0.08203125t0.3349609375,0.1708984375t0.13671875,0.2666015625t-0.3212890625,0.2939453125t-0.8408203125,0.2255859375t-1.12109375,0.1640625t-1.17578125,0.1162109375t-1.0185546875,0.0751953125t-0.6357421875,0.02734375l-0.02734375,5.140625l0.02734375,2.556640625q0.423828125,0,1.271484375-0.02734375q0.341796875-0.013671875,0.68359375-0.013671875q0.51953125,0,1.06640625,0.02734375q0.90234375,0.041015625,1.626953125,0.1640625t0.916015625,0.4375q0,0.19140625-0.1982421875,0.3076171875t-0.4443359375,0.1708984375t-0.4990234375,0.068359375t-0.3623046875,0.013671875q-1.01171875,0-2.037109375-0.041015625t-2.0234375-0.1640625q0,1.681640625-0.0888671875,3.3359375t-0.0888671875,3.3359375q0,0.724609375,0.013671875,1.4287109375t0.1640625,1.4013671875q0.369140625-0.02734375,0.7998046875-0.068359375t0.875-0.1025390625t0.8544921875-0.1025390625t0.7109375-0.041015625q0.1640625,0,0.4443359375,0.041015625t0.57421875,0.13671875t0.505859375,0.2392578125t0.2119140625,0.3349609375q0,0.21875-0.4033203125,0.3896484375t-1.0322265625,0.2734375t-1.3740234375,0.1435546875t-1.4423828125,0.0546875t-1.2578125,0.013671875l-0.79296875,0q-0.751953125,0-1.1005859375-0.2802734375t-0.4853515625-0.7314453125q-0.109375-0.369140625-0.095703125-0.833984375l0-0.19140625z M91.59927734375,96.6640625q0-0.642578125,0.0341796875-1.271484375t0.1162109375-1.244140625q0.0546875-0.314453125,0.4853515625-0.451171875t0.7177734375-0.13671875l0.328125,0.02734375q0.396484375,0.0546875,0.7998046875-0.0546875t0.7998046875-0.109375q0.9296875,0,2.078125,0.205078125t2.1533203125,0.697265625t1.6884765625,1.2919921875t0.68359375,1.9755859375t-0.7109375,2.1943359375t-1.791015625,1.791015625t-2.32421875,1.2099609375t-2.283203125,0.4375q0.109375,2.638671875,0.3076171875,5.236328125t0.6767578125,5.1953125l0.02734375,0.177734375q0,0.19140625-0.1708984375,0.314453125t-0.4033203125,0.1982421875t-0.4716796875,0.1025390625t-0.3896484375,0.02734375q-0.341796875,0-0.8271484375-0.1298828125t-0.5947265625-0.5126953125q-0.314453125-1.203125-0.4921875-2.6455078125t-0.259765625-3.0146484375t-0.1162109375-3.1650390625t-0.0341796875-3.1103515625l0-3.076171875q0-0.505859375-0.013671875-1.052734375t-0.013671875-1.107421875z M94.18326171875,94.44921875q0,1.873046875,0.041015625,3.7392578125t0.095703125,3.7392578125q0.806640625-0.1640625,1.6474609375-0.5810546875t1.517578125-0.9912109375t1.09375-1.3056640625t0.4169921875-1.5380859375q0-0.724609375-0.3623046875-1.298828125t-0.9365234375-0.984375q-0.560546875-0.396484375-1.271484375-0.615234375q-0.62890625-0.19140625-1.23046875-0.19140625l-0.150390625,0z M104.200234375,113.685546875q0-0.08203125,0.0546875-0.5810546875t0.1435546875-1.216796875t0.1982421875-1.544921875t0.19140625-1.5654296875t0.1435546875-1.298828125t0.0615234375-0.751953125q-0.109375-0.0546875-0.2666015625-0.1572265625t-0.1572265625-0.2392578125q0-0.19140625,0.1845703125-0.3076171875t0.3212890625-0.1708984375q0.0546875-0.697265625,0.13671875-1.94140625t0.2529296875-2.6865234375t0.478515625-2.92578125t0.8134765625-2.693359375t1.216796875-1.9755859375t1.75-0.765625t1.72265625,0.65625t1.1142578125,1.708984375t0.65625,2.337890625t0.341796875,2.556640625t0.1435546875,2.37890625t0.0546875,1.77734375q0.02734375,0.423828125,0.205078125,0.5673828125t0.3896484375,0.1982421875t0.3828125,0.123046875t0.1708984375,0.341796875q0,0.314453125-0.3828125,0.4375t-0.6015625,0.150390625q0.13671875,1.708984375,0.3759765625,3.36328125t0.6357421875,3.3359375q0.0546875,0.314453125,0.150390625,0.6357421875t0.095703125,0.6220703125q0,0.21875-0.150390625,0.3623046875t-0.3896484375,0.2255859375t-0.478515625,0.109375t-0.4033203125,0.02734375q-0.615234375,0-1.0390625-0.232421875t-0.560546875-0.888671875q-0.369140625-1.763671875-0.724609375-3.705078125q-0.30078125-1.681640625-0.30078125-3.267578125q0-0.24609375,0.013671875-0.4921875q-1.1484375,0-2.310546875,0.0546875t-2.228515625,0.41015625q-0.02734375,0.369140625-0.13671875,1.39453125t-0.24609375,2.201171875t-0.2802734375,2.2490234375t-0.1708984375,1.5244140625q-0.02734375,0.19140625-0.2802734375,0.3623046875t-0.546875,0.1845703125t-0.51953125-0.1845703125t-0.2255859375-0.7041015625z M106.756875,105.400390625q1.06640625-0.24609375,2.1396484375-0.287109375t2.1669921875-0.095703125q-0.0546875-0.341796875-0.02734375-0.7041015625t0.02734375-0.7314453125q0-0.806640625-0.041015625-1.873046875t-0.123046875-2.16015625t-0.2119140625-2.1533203125t-0.2939453125-1.88671875t-0.3486328125-1.3193359375t-0.4033203125-0.4921875q-0.423828125,0.02734375-0.7998046875,0.7314453125t-0.68359375,1.791015625t-0.560546875,2.43359375t-0.423828125,2.6318359375t-0.2802734375,2.392578125t-0.13671875,1.72265625z M117.97697265625,113.80859375q0.0546875-2.857421875,0.2392578125-5.701171875t0.3212890625-5.701171875q0.02734375-1.09375,0.02734375-1.9892578125t0.0888671875-1.5517578125t0.328125-1.0048828125t0.7998046875-0.3486328125q0.478515625,0,0.724609375,0.13671875t0.3759765625,0.3486328125t0.1572265625,0.478515625t0.02734375,0.5400390625q0,0.396484375,0.02734375,0.7861328125t0.02734375,0.7861328125q0,2.884765625-0.1572265625,5.755859375t-0.1572265625,5.783203125q0,0.423828125,0.013671875,0.8544921875t0.013671875,0.8818359375q0,0.1640625-0.150390625,0.2734375t-0.3759765625,0.1845703125t-0.478515625,0.1025390625t-0.4169921875,0.02734375q-0.19140625,0-0.4306640625-0.02734375t-0.46484375-0.1162109375t-0.3828125-0.2119140625t-0.1572265625-0.287109375z M118.74259765625,95.26953125q0-0.13671875,0.041015625-0.3076171875t0.095703125-0.3076171875q0.02734375-0.1640625,0.08203125-0.560546875t0.1982421875-0.7724609375t0.396484375-0.669921875t0.7177734375-0.2939453125l0.259765625,0q0.21875,0.0546875,0.4443359375,0.13671875t0.2255859375,0.396484375q0,0.13671875-0.013671875,0.259765625t-0.041015625,0.2734375q-0.109375,0.806640625-0.2119140625,1.271484375t-0.2392578125,0.7041015625t-0.3486328125,0.3076171875t-0.5400390625,0.095703125q-0.109375,0-0.2939453125-0.013671875t-0.35546875-0.068359375t-0.2939453125-0.1708984375t-0.123046875-0.2802734375z M124.0017578125,95.26953125q0-0.642578125,0.1572265625-0.9365234375t0.451171875-0.41015625t0.7109375-0.0888671875t0.9775390625,0.02734375q1.421875,0,2.87109375,0.4375t2.611328125,1.2783203125t1.873046875,2.0712890625t0.7109375,2.830078125q0,1.06640625-0.3076171875,2.0166015625t-0.8681640625,1.77734375t-1.3125,1.5107421875t-1.654296875,1.189453125q0.369140625,0.369140625,0.95703125,1.3056640625t1.162109375,1.99609375t1.0185546875,2.0576171875t0.5263671875,1.50390625l-0.1640625,0.24609375q-0.369140625,0.21875-0.888671875,0.232421875q-0.24609375,0-0.642578125-0.0615234375t-0.505859375-0.3623046875q-0.560546875-1.572265625-1.2236328125-3.240234375t-1.6337890625-3.0078125l0-0.02734375q-0.341796875,0.13671875-0.6767578125,0.2666015625t-0.6767578125,0.2392578125q0.109375,1.517578125,0.2255859375,2.9873046875t0.1162109375,2.9736328125q0,0.19140625-0.1845703125,0.3076171875t-0.4169921875,0.1845703125t-0.4716796875,0.095703125t-0.3896484375,0.02734375q-0.13671875,0-0.3896484375-0.02734375t-0.4853515625-0.095703125t-0.4033203125-0.1982421875t-0.1708984375-0.3486328125q0-1.517578125-0.068359375-3.0283203125t-0.150390625-3.0146484375q-0.423828125-0.2734375-0.423828125-0.7109375q0-0.341796875,0.328125-0.46484375q-0.1640625-2.884765625-0.3759765625-5.755859375t-0.2119140625-5.783203125z M126.4763671875,94.845703125q0.19140625,2.966796875,0.4306640625,5.865234375t0.4580078125,5.865234375q0.95703125-0.2734375,1.7841796875-0.9501953125t1.4287109375-1.5244140625t0.9365234375-1.845703125t0.3349609375-1.982421875q0-1.09375-0.4375-2.0986328125t-1.162109375-1.7568359375q-0.73828125-0.751953125-1.6953125-1.17578125q-0.84765625-0.369140625-1.77734375-0.369140625l-0.24609375,0z"/><path fill="#" d="M141.62712890625,97.6123046875q0-0.09765625,0.1513671875-0.13916015625t0.2490234375-0.04150390625q0.1123046875,0,0.24658203125,0.029296875t0.16357421875,0.1513671875q0.1416015625,0.5712890625,0.21728515625,1.16455078125t0.11474609375,1.19384765625t0.0634765625,1.19384765625t0.0537109375,1.17431640625q0.1318359375-0.5810546875,0.27099609375-1.15478515625t0.36376953125-1.14501953125l0-0.390625q0-0.2490234375,0.17333984375-0.35888671875t0.46630859375-0.10986328125q0.029296875,0,0.13427734375,0.0146484375t0.10498046875,0.09765625q-0.01953125,0.05859375-0.04638671875,0.1123046875t-0.02685546875,0.1171875q0,0.7421875,0.17578125,1.52099609375t0.3466796875,1.51611328125q0.09765625-0.6298828125,0.224609375-1.2548828125t0.263671875-1.2451171875q0.1806640625-0.830078125,0.27587890625-1.37939453125t0.1806640625-0.869140625t0.185546875-0.4541015625t0.28076171875-0.13427734375q0.1123046875-0.009765625,0.2099609375,0.0390625t0.078125,0.1611328125q-0.3515625,1.69921875-0.65673828125,3.408203125t-0.62255859375,3.41796875q0,0.09765625,0.0341796875,0.2294921875t0.0341796875,0.234375q0,0.05859375-0.0537109375,0.09765625t-0.12939453125,0.06591796875t-0.166015625,0.03662109375t-0.15869140625,0.009765625q-0.1513671875,0-0.3173828125-0.04638671875t-0.21484375-0.26611328125q-0.1708984375-0.76171875-0.31494140625-1.53076171875t-0.26611328125-1.55029296875q-0.0390625,0.1806640625-0.0732421875,0.3662109375t-0.0634765625,0.3759765625q-0.1416015625,0.830078125-0.3125,1.66015625t-0.1708984375,1.6796875q0,0.2099609375-0.087890625,0.27099609375t-0.2978515625,0.06103515625q-0.1611328125,0-0.2734375-0.0537109375q-0.087890625-0.048828125-0.166015625-0.087890625q-0.068359375-0.0390625-0.12451171875-0.09033203125t-0.05615234375-0.10009765625q-0.078125-1.0595703125-0.10986328125-2.1044921875t-0.07080078125-2.1044921875q-0.0390625-0.9521484375-0.11474609375-1.90185546875t-0.16845703125-1.88720703125z M147.55813476563,101.5478515625q0-0.2880859375,0.03173828125-0.6982421875t0.1171875-0.8544921875t0.2294921875-0.8837890625t0.36865234375-0.7763671875t0.537109375-0.5322265625q0.2587890625-0.1611328125,0.595703125-0.1611328125q0.068359375,0,0.1416015625,0.009765625q0.849609375,0.078125,1.30615234375,0.38818359375t0.66650390625,0.7861328125t0.244140625,1.083984375t0.0341796875,1.28173828125q0,0.5419921875-0.10009765625,1.17919921875t-0.35400390625,1.18896484375t-0.70068359375,0.92041015625t-1.13525390625,0.36865234375q-0.419921875,0-0.73486328125-0.15380859375t-0.53466796875-0.41015625t-0.361328125-0.595703125t-0.21484375-0.703125t-0.10498046875-0.73486328125t-0.03173828125-0.703125z M148.54934570313,101.328125q0,0.2099609375,0.0048828125,0.51513671875t0.04150390625,0.64208984375t0.09521484375,0.67138671875t0.17333984375,0.60791015625t0.29052734375,0.44921875t0.4248046875,0.185546875l0.0244140625,0q0.224609375,0,0.400390625-0.1708984375q0.185546875-0.1806640625,0.32958984375-0.4345703125t0.2490234375-0.53466796875t0.18798828125-0.48095703125l-0.01953125,0.0439453125q0.1416015625-0.44921875,0.1904296875-0.92041015625t0.048828125-0.93017578125q0-0.2197265625-0.029296875-0.52978515625t-0.09521484375-0.64697265625t-0.1708984375-0.66650390625t-0.26611328125-0.57373046875t-0.3759765625-0.37109375q-0.15625-0.0927734375-0.3466796875-0.09765625q-0.0732421875,0-0.146484375,0.0146484375q-0.2490234375,0.048828125-0.4248046875,0.244140625t-0.28564453125,0.48095703125t-0.16845703125,0.625t-0.09033203125,0.68359375t-0.03662109375,0.6591796875t-0.0048828125,0.53466796875z M150.75149414063,102.83203125l0-0.009765625l0,0.009765625z M152.8397265625,98.310546875q0-0.2294921875,0.05615234375-0.33447265625t0.1611328125-0.146484375t0.25390625-0.03173828125t0.34912109375,0.009765625q0.5078125,0,1.025390625,0.15625t0.9326171875,0.45654296875t0.6689453125,0.73974609375t0.25390625,1.0107421875q0,0.380859375-0.10986328125,0.72021484375t-0.31005859375,0.634765625t-0.46875,0.53955078125t-0.5908203125,0.4248046875q0.1318359375,0.1318359375,0.341796875,0.46630859375t0.4150390625,0.712890625t0.36376953125,0.73486328125t0.18798828125,0.537109375l-0.05859375,0.087890625q-0.1318359375,0.078125-0.3173828125,0.0830078125q-0.087890625,0-0.2294921875-0.02197265625t-0.1806640625-0.12939453125q-0.2001953125-0.5615234375-0.43701171875-1.1572265625t-0.58349609375-1.07421875l0-0.009765625q-0.1220703125,0.048828125-0.24169921875,0.09521484375t-0.24169921875,0.08544921875q0.0390625,0.5419921875,0.08056640625,1.06689453125t0.04150390625,1.06201171875q0,0.068359375-0.06591796875,0.10986328125t-0.14892578125,0.06591796875t-0.16845703125,0.0341796875t-0.13916015625,0.009765625q-0.048828125,0-0.13916015625-0.009765625t-0.17333984375-0.0341796875t-0.14404296875-0.07080078125t-0.06103515625-0.12451171875q0-0.5419921875-0.0244140625-1.08154296875t-0.0537109375-1.07666015625q-0.1513671875-0.09765625-0.1513671875-0.25390625q0-0.1220703125,0.1171875-0.166015625q-0.05859375-1.0302734375-0.13427734375-2.0556640625t-0.07568359375-2.0654296875z M153.723515625,98.1591796875q0.068359375,1.0595703125,0.15380859375,2.0947265625t0.16357421875,2.0947265625q0.341796875-0.09765625,0.63720703125-0.33935546875t0.51025390625-0.54443359375t0.33447265625-0.6591796875t0.11962890625-0.7080078125q0-0.390625-0.15625-0.74951171875t-0.4150390625-0.62744140625q-0.263671875-0.2685546875-0.60546875-0.419921875q-0.302734375-0.1318359375-0.634765625-0.1318359375l-0.087890625,0z M157.54026367188,101.9287109375q0-0.83984375,0.04638671875-1.66015625t0.11474609375-1.66015625q0.01953125-0.2197265625,0.0244140625-0.4248046875t0.04638671875-0.35888671875t0.146484375-0.244140625t0.32470703125-0.09033203125q0.1416015625,0,0.29541015625,0.048828125t0.15380859375,0.2294921875q0,0.6787109375-0.05615234375,1.33544921875t-0.07568359375,1.30615234375q0.5322265625-0.6005859375,1.1376953125-1.12060546875t1.2841796875-1.02783203125q0.09765625-0.068359375,0.2490234375-0.0732421875q0.048828125,0,0.08544921875,0.0048828125t0.07568359375,0.0146484375q0.048828125,0.01953125,0.10009765625,0.04638671875t0.05126953125,0.07568359375q0,0.0390625-0.0439453125,0.068359375q-0.5078125,0.41015625-1.00341796875,0.8349609375t-0.94482421875,0.908203125q0.05859375,0.1123046875,0.10009765625,0.2099609375t0.09033203125,0.2099609375q0.41015625,0.9716796875,0.70068359375,1.98974609375t0.61767578125,2.01904296875q0.029296875,0.1123046875,0.08544921875,0.23193359375t0.10498046875,0.2392578125t0.08544921875,0.224609375t0.03662109375,0.17333984375q0,0.087890625-0.05615234375,0.13916015625t-0.12939453125,0.08056640625t-0.15869140625,0.0390625t-0.15869140625,0.009765625q-0.1708984375,0-0.30517578125-0.048828125t-0.21240234375-0.2197265625q-0.361328125-1.15234375-0.69580078125-2.3046875t-0.67626953125-2.32421875q-0.1123046875,0.1123046875-0.224609375,0.28076171875t-0.205078125,0.31005859375q0,0.732421875,0.0341796875,1.455078125t0.1171875,1.455078125q0.01953125,0.2099609375,0.06591796875,0.419921875t0.04638671875,0.4296875q0,0.1611328125-0.166015625,0.224609375t-0.3662109375,0.0634765625q-0.2197265625,0-0.32958984375-0.0439453125t-0.15625-0.11474609375t-0.05615234375-0.15625t-0.029296875-0.16357421875q-0.1123046875-0.771484375-0.1416015625-1.52587890625t-0.029296875-1.51611328125z M162.54353515625,104.072265625q0-0.1708984375,0.1171875-0.21728515625t0.25390625-0.04638671875q0.2392578125,0,0.4052734375,0.21484375t0.31494140625,0.47119140625t0.29541015625,0.47119140625t0.3466796875,0.21484375q0.1513671875,0,0.27587890625-0.07568359375t0.21484375-0.1904296875t0.13916015625-0.2587890625t0.048828125-0.28564453125q0-0.37109375-0.14892578125-0.7666015625t-0.380859375-0.8154296875t-0.49072265625-0.859375t-0.48828125-0.8935546875t-0.380859375-0.92529296875t-0.1513671875-0.94970703125q0-0.7177734375,0.4296875-1.11328125t1.1328125-0.3955078125q0.2392578125,0,0.4833984375,0.068359375t0.44921875,0.205078125t0.33447265625,0.3369140625t0.12939453125,0.46875q0,0.087890625-0.12939453125,0.11474609375t-0.18798828125,0.02685546875q-0.087890625,0-0.1904296875-0.02197265625t-0.1318359375-0.11962890625t-0.0830078125-0.224609375t-0.13427734375-0.23681640625t-0.1904296875-0.1904296875t-0.24169921875-0.08056640625q-0.2197265625,0-0.37353515625,0.09033203125t-0.2490234375,0.24169921875t-0.1416015625,0.33935546875t-0.04638671875,0.38818359375q0,0.46875,0.1611328125,0.94482421875t0.400390625,0.947265625t0.52001953125,0.93017578125t0.52001953125,0.8935546875t0.400390625,0.849609375t0.1611328125,0.7861328125q0,0.33203125-0.15625,0.5615234375t-0.3955078125,0.37353515625t-0.52978515625,0.2099609375t-0.56884765625,0.06591796875q-0.2978515625,0-0.6103515625-0.11962890625t-0.5615234375-0.32958984375t-0.41015625-0.49072265625t-0.1611328125-0.60791015625z M166.91692382813,99.12841796875q-0.009765625-0.12939453125,0.02197265625-0.244140625t0.11962890625-0.1904296875t0.2978515625-0.07568359375q0.048828125,0,0.11962890625,0.009765625t0.1416015625,0.03173828125t0.11474609375,0.06103515625t0.0439453125,0.107421875q0,0.1806640625,0.01220703125,0.47607421875t0.03173828125,0.615234375t0.03662109375,0.625t0.03173828125,0.49560546875q0.380859375-0.01953125,0.7666015625-0.01953125t0.76171875-0.01953125l0.673828125-0.01953125l0-0.4833984375q0-0.810546875-0.03173828125-1.62353515625t-0.10986328125-1.62353515625q0-0.05859375,0.048828125-0.09521484375t0.11474609375-0.05615234375t0.13671875-0.0244140625t0.10986328125-0.0048828125q0.1123046875,0,0.24169921875,0.0341796875t0.14892578125,0.146484375l0.029296875,0.2099609375q0.1220703125,0.87890625,0.166015625,1.73828125t0.0634765625,1.71875q0.05859375,0.009765625,0.12451171875,0.03173828125t0.13427734375,0.04150390625q0.048828125,0.01953125,0.13916015625,0.05859375t0.09033203125,0.1220703125q0,0.078125-0.068359375,0.1220703125t-0.15380859375,0.06591796875t-0.166015625,0.02685546875t-0.10009765625,0.0048828125q0.009765625,0.361328125,0.009765625,0.72021484375l0,0.72021484375l0,1.5771484375l0,0.87890625q0,0.05859375-0.05615234375,0.10498046875t-0.13427734375,0.07568359375t-0.16357421875,0.0390625t-0.15380859375,0.009765625t-0.1611328125-0.009765625t-0.166015625-0.0390625t-0.12939453125-0.0732421875t-0.05615234375-0.107421875l0-0.2099609375q0.01953125-0.927734375,0.0439453125-1.83837890625t0.048828125-1.82861328125q-0.5322265625,0.01953125-1.08154296875,0.0244140625t-1.09130859375,0.0244140625q0.05859375,0.6884765625,0.13427734375,1.37451171875t0.15869140625,1.37451171875q0,0.05859375-0.05615234375,0.10498046875t-0.1318359375,0.07568359375t-0.1611328125,0.0390625t-0.15380859375,0.009765625q-0.1416015625,0-0.31005859375-0.048828125t-0.18798828125-0.1806640625q-0.05859375-0.517578125-0.10986328125-1.142578125t-0.09033203125-1.27685546875t-0.06103515625-1.27685546875t-0.02197265625-1.1328125q0-0.1220703125-0.009765625-0.25146484375z M172.4963671875,101.5478515625q0-0.2880859375,0.03173828125-0.6982421875t0.1171875-0.8544921875t0.2294921875-0.8837890625t0.36865234375-0.7763671875t0.537109375-0.5322265625q0.2587890625-0.1611328125,0.595703125-0.1611328125q0.068359375,0,0.1416015625,0.009765625q0.849609375,0.078125,1.30615234375,0.38818359375t0.66650390625,0.7861328125t0.244140625,1.083984375t0.0341796875,1.28173828125q0,0.5419921875-0.10009765625,1.17919921875t-0.35400390625,1.18896484375t-0.70068359375,0.92041015625t-1.13525390625,0.36865234375q-0.419921875,0-0.73486328125-0.15380859375t-0.53466796875-0.41015625t-0.361328125-0.595703125t-0.21484375-0.703125t-0.10498046875-0.73486328125t-0.03173828125-0.703125z M173.487578125,101.328125q0,0.2099609375,0.0048828125,0.51513671875t0.04150390625,0.64208984375t0.09521484375,0.67138671875t0.17333984375,0.60791015625t0.29052734375,0.44921875t0.4248046875,0.185546875l0.0244140625,0q0.224609375,0,0.400390625-0.1708984375q0.185546875-0.1806640625,0.32958984375-0.4345703125t0.2490234375-0.53466796875t0.18798828125-0.48095703125l-0.01953125,0.0439453125q0.1416015625-0.44921875,0.1904296875-0.92041015625t0.048828125-0.93017578125q0-0.2197265625-0.029296875-0.52978515625t-0.09521484375-0.64697265625t-0.1708984375-0.66650390625t-0.26611328125-0.57373046875t-0.3759765625-0.37109375q-0.15625-0.0927734375-0.3466796875-0.09765625q-0.0732421875,0-0.146484375,0.0146484375q-0.2490234375,0.048828125-0.4248046875,0.244140625t-0.28564453125,0.48095703125t-0.16845703125,0.625t-0.09033203125,0.68359375t-0.03662109375,0.6591796875t-0.0048828125,0.53466796875z M175.6897265625,102.83203125l0-0.009765625l0,0.009765625z M177.77795898438,98.80859375q0-0.2294921875,0.01220703125-0.4541015625t0.04150390625-0.4443359375q0.01953125-0.1123046875,0.17333984375-0.1611328125t0.25634765625-0.048828125l0.1171875,0.009765625q0.1416015625,0.01953125,0.28564453125-0.01953125t0.28564453125-0.0390625q0.33203125,0,0.7421875,0.0732421875t0.76904296875,0.2490234375t0.60302734375,0.46142578125t0.244140625,0.70556640625t-0.25390625,0.78369140625t-0.6396484375,0.6396484375t-0.830078125,0.43212890625t-0.8154296875,0.15625q0.0390625,0.9423828125,0.10986328125,1.8701171875t0.24169921875,1.85546875l0.009765625,0.0634765625q0,0.068359375-0.06103515625,0.1123046875t-0.14404296875,0.07080078125t-0.16845703125,0.03662109375t-0.13916015625,0.009765625q-0.1220703125,0-0.29541015625-0.04638671875t-0.21240234375-0.18310546875q-0.1123046875-0.4296875-0.17578125-0.94482421875t-0.0927734375-1.07666015625t-0.04150390625-1.13037109375t-0.01220703125-1.11083984375l0-1.0986328125q0-0.1806640625-0.0048828125-0.3759765625t-0.0048828125-0.3955078125z M178.70081054688,98.017578125q0,0.6689453125,0.0146484375,1.33544921875t0.0341796875,1.33544921875q0.2880859375-0.05859375,0.58837890625-0.20751953125t0.5419921875-0.35400390625t0.390625-0.46630859375t0.14892578125-0.54931640625q0-0.2587890625-0.12939453125-0.4638671875t-0.33447265625-0.3515625q-0.2001953125-0.1416015625-0.4541015625-0.2197265625q-0.224609375-0.068359375-0.439453125-0.068359375l-0.0537109375,0z"/></svg>
